<svg xmlns="http://www.w3.org/2000/svg" viewBox="0 0 64 64">
  <!-- Dark navy background -->
  <rect width="64" height="64" rx="13" fill="#1a1a2e"/>

  <!-- Face profile silhouette (facing left, cream/beige fill) -->
  <path d="
    M 33 8
    C 25 8 20 14 20 21
    C 20 27 23 32 26 35
    C 25 37 24 39 22 41
    C 20 43 17 44 15 45
    L 40 45
    C 39 42 37 39 36 36
    C 40 33 43 28 43 21
    C 43 14 41 8 33 8 Z
  " fill="#ddd0b0"/>

  <!-- Hair flowing up/behind (right side of head) -->
  <path d="
    M 33 8
    C 37 6 44 8 47 13
    C 49 17 48 22 46 24
    C 45 21 43 16 40 13
    C 38 10 35 8 33 8 Z
  " fill="#ddd0b0" opacity="0.72"/>

  <!-- 4-pointed sparkle — pink, top-right -->
  <path d="
    M 50 9
    L 51.4 13.6
    L 56 15
    L 51.4 16.4
    L 50 21
    L 48.6 16.4
    L 44 15
    L 48.6 13.6 Z
  " fill="#ec4899"/>
</svg>
